<svg width="106" height="18" viewBox="0 0 106 18" fill="none" xmlns="http://www.w3.org/2000/svg">
  <path
    d="M28.8362 14.877L28.903 15.4713C28.6358 15.5541 28.2989 15.5955 27.8925 15.5955C27.4137 15.5955 27.0761 15.4952 26.8798 15.2946C26.6836 15.0939 26.5854 14.7466 26.5854 14.2526C26.5854 13.7585 26.6836 13.4112 26.8798 13.2106C27.0761 13.01 27.4137 12.9097 27.8925 12.9097C28.2516 12.9097 28.5676 12.9435 28.8404 13.0112L28.7736 13.6056C28.3838 13.6006 28.0901 13.598 27.8925 13.598C27.7505 13.598 27.6559 13.6413 27.6085 13.7278C27.5612 13.8143 27.5375 13.9893 27.5375 14.2526C27.5375 14.5159 27.5612 14.6908 27.6085 14.7773C27.6559 14.8638 27.7505 14.9071 27.8925 14.9071C28.3073 14.9071 28.6219 14.8971 28.8362 14.877Z"
    fill="#005776" />
  <path
    d="M32.4752 12.9014C32.8176 12.9014 33.0828 12.9396 33.2707 13.0161C33.4586 13.0926 33.5971 13.228 33.6862 13.4224C33.7753 13.6167 33.8198 13.8932 33.8198 14.2518C33.8198 14.6104 33.7753 14.8869 33.6862 15.0812C33.5971 15.2756 33.4586 15.411 33.2707 15.4875C33.0828 15.564 32.8176 15.6022 32.4752 15.6022C32.1356 15.6022 31.8718 15.564 31.6839 15.4875C31.496 15.411 31.3575 15.2756 31.2684 15.0812C31.1793 14.8869 31.1348 14.6104 31.1348 14.2518C31.1348 13.8932 31.1793 13.6167 31.2684 13.4224C31.3575 13.228 31.496 13.0926 31.6839 13.0161C31.8718 12.9396 32.1356 12.9014 32.4752 12.9014ZM32.7863 13.6556C32.7863 13.6556 32.7734 13.6308 32.7477 13.5813C32.7219 13.5318 32.6311 13.507 32.4752 13.507C32.3193 13.507 32.2156 13.5565 32.1641 13.6556C32.1126 13.7546 32.0869 13.9534 32.0869 14.2518C32.0869 14.5502 32.1126 14.749 32.1641 14.848C32.2156 14.9471 32.3193 14.9966 32.4752 14.9966C32.6311 14.9966 32.7348 14.9471 32.7863 14.848C32.8378 14.749 32.8636 14.5502 32.8636 14.2518C32.8636 13.9534 32.8378 13.7546 32.7863 13.6556Z"
    fill="#005776" />
  <path
    d="M38.9988 12.9541V15.2675C38.9988 15.4556 38.8944 15.5496 38.6856 15.5496H38.339C38.2527 15.5496 38.1866 15.5321 38.1407 15.497C38.0948 15.4619 38.0439 15.4004 37.9883 15.3127L37.3619 14.4211C37.2923 14.3083 37.2283 14.1603 37.1698 13.9773H37.1406C37.1684 14.1528 37.1823 14.3108 37.1823 14.4512V15.5496H36.3472V13.2362C36.3472 13.0481 36.4516 12.9541 36.6604 12.9541H37.007C37.0933 12.9541 37.1587 12.9717 37.2032 13.0068C37.2478 13.0419 37.2993 13.1033 37.3577 13.1911L37.959 14.0412C38.0342 14.1616 38.108 14.3096 38.1804 14.4851H38.2096C38.1845 14.2995 38.1706 14.1428 38.1678 14.0149V12.9541L38.9988 12.9541Z"
    fill="#005776" />
  <path d="M43.8886 13.5635H43.0827V15.5496H42.1765V13.5635H41.3706V12.9541H43.8886V13.5635Z" fill="#005776" />
  <path
    d="M48.8 15.5497H47.8521L47.6641 14.7785C47.6474 14.7083 47.6217 14.6613 47.5869 14.6375C47.5521 14.6136 47.4957 14.6017 47.4178 14.6017H47.138V15.5497H46.2485V12.9541C46.5325 12.929 46.9403 12.9165 47.4721 12.9165C47.9063 12.9165 48.2174 12.9742 48.4054 13.0895C48.5933 13.2049 48.6872 13.4105 48.6872 13.7065C48.6872 14.0826 48.4924 14.2882 48.1026 14.3234V14.3459C48.3643 14.376 48.5216 14.5114 48.5745 14.7522L48.8 15.5497ZM47.138 14.0262H47.4512C47.582 14.0262 47.669 14.0086 47.7122 13.9735C47.7553 13.9384 47.7769 13.867 47.7769 13.7591C47.7769 13.6513 47.7553 13.5798 47.7122 13.5447C47.669 13.5096 47.582 13.492 47.4512 13.492H47.138V14.0262Z"
    fill="#005776" />
  <path
    d="M52.4064 12.9014C52.7488 12.9014 53.014 12.9396 53.2019 13.0161C53.3898 13.0926 53.5283 13.228 53.6174 13.4224C53.7064 13.6167 53.751 13.8932 53.751 14.2518C53.751 14.6104 53.7064 14.8869 53.6174 15.0812C53.5283 15.2756 53.3898 15.411 53.2019 15.4875C53.014 15.564 52.7488 15.6022 52.4064 15.6022C52.0667 15.6022 51.803 15.564 51.615 15.4875C51.4271 15.411 51.2886 15.2756 51.1995 15.0812C51.1105 14.8869 51.0659 14.6104 51.0659 14.2518C51.0659 13.8932 51.1105 13.6167 51.1995 13.4224C51.2886 13.228 51.4271 13.0926 51.615 13.0161C51.803 12.9396 52.0667 12.9014 52.4064 12.9014ZM52.7175 13.6556C52.7175 13.6556 52.7046 13.6308 52.6788 13.5813C52.6531 13.5318 52.5623 13.507 52.4064 13.507C52.2505 13.507 52.1468 13.5565 52.0953 13.6556C52.0438 13.7546 52.018 13.9534 52.018 14.2518C52.018 14.5502 52.0438 14.749 52.0953 14.848C52.1468 14.9471 52.2505 14.9966 52.4064 14.9966C52.5623 14.9966 52.666 14.9471 52.7175 14.848C52.769 14.749 52.7947 14.5502 52.7947 14.2518C52.7947 13.9534 52.769 13.7546 52.7175 13.6556Z"
    fill="#005776" />
  <path
    d="M57.0795 12.9541V14.7672C57.0795 14.8073 57.0955 14.8399 57.1275 14.865C57.1595 14.8901 57.202 14.9026 57.2549 14.9026H58.2237L58.2654 15.512C57.9787 15.5471 57.5096 15.5647 56.8582 15.5647C56.6522 15.5647 56.4865 15.5101 56.3612 15.4011C56.236 15.292 56.1733 15.1496 56.1733 14.9741V12.9541L57.0795 12.9541Z"
    fill="#005776" />
  <path
    d="M62.5743 14.9407L62.616 15.5162C62.3376 15.5488 61.8379 15.5651 61.1169 15.5651C60.9193 15.5651 60.7571 15.5105 60.6304 15.4015C60.5038 15.2924 60.4404 15.15 60.4404 14.9745V13.53C60.4404 13.3545 60.5038 13.2122 60.6304 13.1031C60.7571 12.994 60.9193 12.9395 61.1169 12.9395C61.8379 12.9395 62.3376 12.9558 62.616 12.9884L62.5743 13.5639H61.5178C61.4649 13.5639 61.4231 13.5764 61.3925 13.6015C61.3619 13.6266 61.3466 13.6592 61.3466 13.6993V13.9513H62.424V14.493H61.3466V14.8052C61.3466 14.8454 61.3619 14.8779 61.3925 14.903C61.4231 14.9281 61.4649 14.9407 61.5178 14.9407H62.5743Z"
    fill="#005776" />
  <path
    d="M67.3574 15.5497V12.9541C67.8474 12.929 68.258 12.9165 68.5893 12.9165C68.9317 12.9165 69.1969 12.9547 69.3848 13.0312C69.5727 13.1077 69.7112 13.2419 69.8003 13.4337C69.8894 13.6256 69.9339 13.8983 69.9339 14.2519C69.9339 14.6055 69.8894 14.8782 69.8003 15.07C69.7112 15.2619 69.5727 15.3961 69.3848 15.4725C69.1969 15.549 68.9317 15.5873 68.5893 15.5873C68.1717 15.5873 67.7611 15.5747 67.3574 15.5497ZM68.2636 14.9929L68.5893 14.9967C68.7452 14.9967 68.8489 14.9472 68.9004 14.8481C68.9519 14.7491 68.9777 14.5503 68.9777 14.2519C68.9777 13.9535 68.9519 13.7547 68.9004 13.6557C68.8489 13.5566 68.7452 13.5071 68.5893 13.5071H68.2636V14.9929Z"
    fill="#005776" />
  <path
    d="M74.4698 14.9407L74.5115 15.5162C74.2332 15.5488 73.7335 15.5651 73.0124 15.5651C72.8148 15.5651 72.6526 15.5105 72.5259 15.4015C72.3993 15.2924 72.3359 15.15 72.3359 14.9745V13.53C72.3359 13.3545 72.3993 13.2122 72.5259 13.1031C72.6526 12.994 72.8148 12.9395 73.0124 12.9395C73.7334 12.9395 74.2332 12.9558 74.5115 12.9884L74.4698 13.5639H73.4133C73.3604 13.5639 73.3186 13.5764 73.288 13.6015C73.2574 13.6266 73.2421 13.6592 73.2421 13.6993V13.9513H74.3195V14.493H73.2421V14.8052C73.2421 14.8454 73.2574 14.8779 73.288 14.903C73.3186 14.9281 73.3604 14.9407 73.4133 14.9407H74.4698Z"
    fill="#005776" />
  <path
    d="M81.2591 13.5639H80.2527C80.197 13.5639 80.1532 13.5764 80.1212 13.6015C80.0892 13.6266 80.0731 13.6592 80.0731 13.6993V14.004H81.1046V14.5457H80.0731V15.55H79.167V13.53C79.167 13.3545 79.231 13.2122 79.3591 13.1031C79.4871 12.994 79.6514 12.9395 79.8518 12.9395C80.5534 12.9395 81.0364 12.957 81.3008 12.9921L81.2591 13.5639Z"
    fill="#005776" />
  <path
    d="M86.1642 15.5497H85.2163L85.0284 14.7785C85.0117 14.7083 84.9859 14.6613 84.9512 14.6375C84.9164 14.6136 84.86 14.6017 84.782 14.6017H84.5023V15.5497H83.6128V12.9541C83.8968 12.929 84.3046 12.9165 84.8363 12.9165C85.2706 12.9165 85.5817 12.9742 85.7696 13.0895C85.9575 13.2049 86.0515 13.4105 86.0515 13.7065C86.0515 14.0826 85.8566 14.2882 85.4669 14.3234V14.3459C85.7286 14.376 85.8858 14.5114 85.9387 14.7522L86.1642 15.5497ZM84.5023 14.0262H84.8154C84.9463 14.0262 85.0333 14.0086 85.0764 13.9735C85.1196 13.9384 85.1412 13.867 85.1412 13.7591C85.1412 13.6513 85.1196 13.5798 85.0764 13.5447C85.0333 13.5096 84.9463 13.492 84.8154 13.492H84.5023V14.0262Z"
    fill="#005776" />
  <path
    d="M89.7701 12.9014C90.1126 12.9014 90.3777 12.9396 90.5656 13.0161C90.7535 13.0926 90.892 13.228 90.9811 13.4224C91.0702 13.6167 91.1148 13.8932 91.1148 14.2518C91.1148 14.6104 91.0702 14.8869 90.9811 15.0812C90.892 15.2756 90.7535 15.411 90.5656 15.4875C90.3777 15.564 90.1126 15.6022 89.7701 15.6022C89.4305 15.6022 89.1667 15.564 88.9788 15.4875C88.7909 15.411 88.6524 15.2756 88.5633 15.0812C88.4742 14.8869 88.4297 14.6104 88.4297 14.2518C88.4297 13.8932 88.4742 13.6167 88.5633 13.4224C88.6524 13.228 88.7909 13.0926 88.9788 13.0161C89.1667 12.9396 89.4305 12.9014 89.7701 12.9014ZM90.0812 13.6556C90.0812 13.6556 90.0684 13.6308 90.0426 13.5813C90.0169 13.5318 89.926 13.507 89.7701 13.507C89.6142 13.507 89.5105 13.5565 89.459 13.6556C89.4075 13.7546 89.3818 13.9534 89.3818 14.2518C89.3818 14.5502 89.4075 14.749 89.459 14.848C89.5105 14.9471 89.6142 14.9966 89.7701 14.9966C89.926 14.9966 90.0297 14.9471 90.0812 14.848C90.1327 14.749 90.1585 14.5502 90.1585 14.2518C90.1585 13.9534 90.1327 13.7546 90.0812 13.6556Z"
    fill="#005776" />
  <path d="M95.8764 13.5635H95.0705V15.5496H94.1643V13.5635H93.3584V12.9541H95.8764L95.8764 13.5635Z" fill="#005776" />
  <path
    d="M99.494 14.9892H98.7048L98.5586 15.5496H97.6357L98.3832 13.1648C98.4027 13.1021 98.4403 13.0513 98.496 13.0124C98.5516 12.9735 98.6157 12.9541 98.6881 12.9541H99.5107C99.5831 12.9541 99.6471 12.9735 99.7028 13.0124C99.7585 13.0513 99.796 13.1021 99.8155 13.1648L100.563 15.5496H99.6401L99.494 14.9892ZM99.3478 14.4174L99.2059 13.8607C99.1808 13.7428 99.1641 13.6437 99.1557 13.5635H99.043C99.0263 13.6814 99.0096 13.7804 98.9929 13.8607L98.8509 14.4174H99.3478Z"
    fill="#005776" />
  <path
    d="M103.939 14.6731L103.367 14.4474C103.133 14.3546 102.967 14.2487 102.87 14.1295C102.772 14.0104 102.724 13.8556 102.724 13.665C102.724 13.3741 102.811 13.1741 102.987 13.065C103.162 12.9559 103.47 12.9014 103.91 12.9014C104.33 12.9014 104.679 12.9453 104.958 13.033L104.903 13.5559C104.569 13.5509 104.231 13.5484 103.889 13.5484C103.783 13.5484 103.712 13.5546 103.676 13.5672C103.64 13.5797 103.621 13.606 103.621 13.6462C103.621 13.6813 103.639 13.7108 103.674 13.7346C103.708 13.7584 103.775 13.7879 103.872 13.823L104.394 14.0186C104.631 14.1114 104.798 14.2179 104.895 14.3383C104.993 14.4587 105.041 14.6154 105.041 14.8085C105.041 15.1019 104.956 15.3076 104.787 15.4254C104.617 15.5433 104.309 15.6022 103.864 15.6022C103.488 15.6022 103.116 15.5596 102.749 15.4743L102.803 14.9026C103.354 14.9151 103.704 14.9214 103.851 14.9214C103.965 14.9214 104.041 14.9151 104.079 14.9026C104.116 14.89 104.135 14.8662 104.135 14.8311C104.135 14.796 104.122 14.7671 104.095 14.7446C104.069 14.722 104.017 14.6982 103.939 14.6731Z"
    fill="#005776" />
  <path
    d="M26.5854 10.6296H28.0251V6.93653H30.9594L34.4694 10.6296H36.3616L32.8515 6.93653H33.9073C35.2647 6.93653 36.3616 5.94843 36.3616 4.72565V4.04633C36.3616 2.82355 35.2647 1.83545 33.9073 1.83545H26.5854V3.13233H33.9073C34.8534 3.13233 34.9219 3.82401 34.9219 4.26865C34.9219 5.08384 34.6751 5.63964 33.9073 5.63964H26.5854V10.6296Z"
    fill="#005776" />
  <path
    d="M40.2285 8.23342H44.6024L45.7404 10.6296H47.3035L43.1353 1.83545H41.5722L43.9854 6.93653H40.8455L41.4625 5.63964H39.8994L37.5273 10.6296H39.0904L40.2285 8.23342Z"
    fill="#005776" />
  <path
    d="M56.8057 8.41868C56.8057 8.91273 56.3395 9.33268 55.7911 9.33268H48.4692V10.6296H55.7911C57.1485 10.6296 58.2454 9.64146 58.2454 8.41868V7.73936C58.2454 6.50423 57.1211 5.63964 55.7911 5.63964H50.9236C50.4162 5.63964 49.9912 5.28146 49.9226 4.83681H48.4692C48.5789 6.01018 49.5936 6.93653 50.9236 6.93653H55.7911C56.3258 6.93653 56.8057 7.22061 56.8057 7.73936V8.41868ZM50.9236 1.83545C49.5387 1.83545 48.5104 2.82355 48.4692 4.04633H49.9089C49.9226 3.55228 50.3614 3.13233 50.9236 3.13233H67.9941V1.83545H50.9236ZM63.8259 10.6296V4.42922H62.3862V10.6296H63.8259Z"
    fill="#005776" />
  <path
    d="M69.3652 10.6296H70.8049V6.93653H73.7391L77.2492 10.6296H79.1414L75.6313 6.93653H76.6871C78.0445 6.93653 79.1414 5.94843 79.1414 4.72565V4.04633C79.1414 2.82355 78.0445 1.83545 76.6871 1.83545H69.3652V3.13233H76.6871C77.6331 3.13233 77.7017 3.82401 77.7017 4.26865C77.7017 5.08384 77.4549 5.63964 76.6871 5.63964H69.3652V10.6296Z"
    fill="#005776" />
  <path
    d="M90.1507 9.33268H81.8142V6.93653H88.711V5.63964H80.3745V10.6296H90.1507V9.33268ZM90.1644 1.83545H80.3745V3.13233H90.1644V1.83545Z"
    fill="#005776" />
  <path
    d="M105.041 4.04633C105.041 2.82355 103.944 1.83545 102.587 1.83545H94.8264L96.0467 3.13233H102.587C103.533 3.13233 103.602 3.82401 103.602 4.26865C103.602 5.08384 103.355 5.63964 102.587 5.63964H98.4324L103.149 10.6296H105.041L101.531 6.93653H102.587C103.944 6.93653 105.041 5.94843 105.041 4.72565V4.04633ZM92.9753 10.6296V3.83636C95.128 6.09664 97.267 8.36928 99.4196 10.6296H101.312L92.9753 1.83545H91.5356V10.6296H92.9753ZM94.3876 8.23342C94.7852 8.23342 95.1006 7.94933 95.1006 7.59115C95.1006 7.22061 94.7578 6.93653 94.3739 6.93653C93.99 6.93653 93.6609 7.23296 93.6609 7.57879C93.6609 7.92463 93.9763 8.23342 94.3876 8.23342Z"
    fill="#005776" />
  <path fill-rule="evenodd" clip-rule="evenodd"
    d="M4.43613 14.7132C4.43613 16.2155 5.7924 17.4379 7.46009 17.4379C9.12851 17.4379 10.4855 16.2155 10.4855 14.7132V13.4418H16.3333C18.001 13.4418 19.358 12.2192 19.358 10.7171C19.358 9.2142 18.001 7.99245 16.3333 7.99245H10.4855V5.44935H11.8972C13.5646 5.44935 14.9219 4.2276 14.9219 2.72467C14.9219 1.22174 13.5646 0 11.8972 0C10.2288 0 8.8725 1.22327 8.8725 2.72467V3.99612H3.02469C1.35627 3.99612 0 5.21786 0 6.72079C0 8.22372 1.35627 9.44546 3.02469 9.44546H8.8725V11.9886H7.46082C5.7924 11.9892 4.43613 13.2118 4.43613 14.7132ZM11.8972 3.99612H10.4855V2.72468C10.4855 2.02367 11.1188 1.45324 11.8972 1.45324C12.6754 1.45324 13.3086 2.02368 13.3086 2.72468C13.3086 3.42568 12.6754 3.99612 11.8972 3.99612ZM1.61325 6.72079C1.61325 6.01979 2.2465 5.44935 3.02469 5.44935H8.8725V7.99245H3.02469C2.2465 7.99245 1.61325 7.42201 1.61325 6.72079ZM16.3333 11.9886H10.4855V9.44546H16.3333C17.1115 9.44546 17.7448 10.0159 17.7448 10.7171C17.7448 11.4181 17.1115 11.9886 16.3333 11.9886ZM6.04938 14.7132C6.04938 14.0129 6.68263 13.4425 7.46082 13.4418H8.8725V14.7132C8.8725 15.4142 8.23925 15.9847 7.46009 15.9847C6.6819 15.9847 6.04938 15.4142 6.04938 14.7132Z"
    fill="#005776" />
</svg>