<svg width="25" height="17" viewBox="0 0 25 17" fill="none" xmlns="http://www.w3.org/2000/svg">
<path d="M5.55556 4.16667H19.4444V12.5H5.55556V4.16667ZM22.9167 8.33333C22.9167 9.48394 23.8494 10.4167 25 10.4167V14.5833C25 15.7339 24.0673 16.6667 22.9167 16.6667H2.08333C0.932726 16.6667 0 15.7339 0 14.5833V10.4167C1.15061 10.4167 2.08333 9.48394 2.08333 8.33333C2.08333 7.18273 1.15061 6.25 0 6.25V2.08333C0 0.932726 0.932726 0 2.08333 0H22.9167C24.0673 0 25 0.932726 25 2.08333V6.25C23.8494 6.25 22.9167 7.18273 22.9167 8.33333ZM20.8333 3.81944C20.8333 3.24414 20.367 2.77778 19.7917 2.77778H5.20833C4.63303 2.77778 4.16667 3.24414 4.16667 3.81944V12.8472C4.16667 13.4225 4.63303 13.8889 5.20833 13.8889H19.7917C20.367 13.8889 20.8333 13.4225 20.8333 12.8472V3.81944Z" fill="#FCF4FF"/>
</svg>
