<svg width="393" height="382" viewBox="0 0 393 382" fill="none" xmlns="http://www.w3.org/2000/svg">
<path d="M127.488 213.214L127.68 215.358C126.912 215.656 125.945 215.806 124.778 215.806C123.403 215.806 122.434 215.444 121.87 214.72C121.306 213.996 121.025 212.743 121.025 210.961C121.025 209.179 121.306 207.926 121.87 207.202C122.434 206.478 123.403 206.116 124.778 206.116C125.809 206.116 126.717 206.238 127.5 206.483L127.308 208.627C126.189 208.609 125.346 208.6 124.778 208.6C124.37 208.6 124.098 208.756 123.963 209.068C123.827 209.38 123.759 210.011 123.759 210.961C123.759 211.911 123.827 212.542 123.963 212.854C124.098 213.166 124.37 213.322 124.778 213.322C125.969 213.322 126.872 213.286 127.488 213.214Z" fill="#005776"/>
<path d="M137.938 206.089C138.921 206.089 139.682 206.227 140.222 206.503C140.762 206.779 141.159 207.267 141.415 207.968C141.671 208.67 141.799 209.667 141.799 210.961C141.799 212.254 141.671 213.252 141.415 213.953C141.159 214.654 140.762 215.143 140.222 215.419C139.682 215.695 138.921 215.833 137.938 215.833C136.962 215.833 136.205 215.695 135.665 215.419C135.126 215.143 134.728 214.654 134.472 213.953C134.216 213.252 134.088 212.254 134.088 210.961C134.088 209.667 134.216 208.67 134.472 207.968C134.728 207.267 135.126 206.779 135.665 206.503C136.205 206.227 136.962 206.089 137.938 206.089ZM138.831 208.81C138.831 208.81 138.794 208.72 138.72 208.542C138.646 208.363 138.385 208.274 137.938 208.274C137.49 208.274 137.192 208.452 137.044 208.81C136.896 209.167 136.822 209.884 136.822 210.961C136.822 212.037 136.896 212.754 137.044 213.112C137.192 213.469 137.49 213.648 137.938 213.648C138.385 213.648 138.683 213.469 138.831 213.112C138.979 212.754 139.053 212.037 139.053 210.961C139.053 209.884 138.979 209.167 138.831 208.81Z" fill="#005776"/>
<path d="M156.672 206.279V214.625C156.672 215.303 156.372 215.643 155.773 215.643H154.777C154.53 215.643 154.34 215.579 154.208 215.453C154.076 215.326 153.93 215.104 153.77 214.788L151.972 211.571C151.772 211.164 151.588 210.63 151.42 209.97H151.336C151.416 210.603 151.456 211.173 151.456 211.68V215.643H149.058V207.297C149.058 206.618 149.357 206.279 149.957 206.279H150.952C151.2 206.279 151.388 206.342 151.516 206.469C151.644 206.595 151.792 206.817 151.96 207.134L153.686 210.201C153.902 210.635 154.114 211.169 154.322 211.802H154.406C154.334 211.133 154.294 210.567 154.286 210.106V206.279L156.672 206.279Z" fill="#005776"/>
<path d="M170.713 208.477H168.398V215.643H165.796V208.477H163.482V206.279H170.713V208.477Z" fill="#005776"/>
<path d="M184.817 215.642H182.095L181.555 212.861C181.507 212.607 181.433 212.438 181.333 212.352C181.233 212.266 181.071 212.223 180.848 212.223H180.044V215.642H177.49V206.279C178.305 206.188 179.477 206.143 181.003 206.143C182.251 206.143 183.144 206.351 183.683 206.767C184.223 207.183 184.493 207.925 184.493 208.993C184.493 210.35 183.933 211.092 182.814 211.218V211.3C183.566 211.408 184.017 211.897 184.169 212.766L184.817 215.642ZM180.044 210.146H180.943C181.319 210.146 181.569 210.083 181.693 209.956C181.817 209.83 181.879 209.572 181.879 209.183C181.879 208.794 181.817 208.536 181.693 208.409C181.569 208.283 181.319 208.219 180.943 208.219H180.044V210.146Z" fill="#005776"/>
<path d="M195.171 206.089C196.155 206.089 196.916 206.227 197.456 206.503C197.995 206.779 198.393 207.267 198.649 207.968C198.905 208.67 199.033 209.667 199.033 210.961C199.033 212.254 198.905 213.252 198.649 213.953C198.393 214.654 197.995 215.143 197.456 215.419C196.916 215.695 196.155 215.833 195.171 215.833C194.196 215.833 193.439 215.695 192.899 215.419C192.36 215.143 191.962 214.654 191.706 213.953C191.45 213.252 191.322 212.254 191.322 210.961C191.322 209.667 191.45 208.67 191.706 207.968C191.962 207.267 192.36 206.779 192.899 206.503C193.439 206.227 194.196 206.089 195.171 206.089ZM196.065 208.81C196.065 208.81 196.028 208.72 195.954 208.542C195.88 208.363 195.619 208.274 195.171 208.274C194.724 208.274 194.426 208.452 194.278 208.81C194.13 209.167 194.056 209.884 194.056 210.961C194.056 212.037 194.13 212.754 194.278 213.112C194.426 213.469 194.724 213.648 195.171 213.648C195.619 213.648 195.917 213.469 196.065 213.112C196.213 212.754 196.287 212.037 196.287 210.961C196.287 209.884 196.213 209.167 196.065 208.81Z" fill="#005776"/>
<path d="M208.592 206.279V212.82C208.592 212.965 208.638 213.082 208.729 213.173C208.821 213.263 208.943 213.308 209.095 213.308H211.877L211.997 215.507C211.174 215.633 209.827 215.697 207.956 215.697C207.364 215.697 206.889 215.5 206.529 215.106C206.169 214.713 205.99 214.199 205.99 213.566V206.279L208.592 206.279Z" fill="#005776"/>
<path d="M224.371 213.444L224.491 215.52C223.691 215.638 222.256 215.697 220.186 215.697C219.618 215.697 219.153 215.5 218.789 215.107C218.425 214.713 218.243 214.2 218.243 213.566V208.355C218.243 207.722 218.425 207.208 218.789 206.815C219.153 206.421 219.618 206.225 220.186 206.225C222.256 206.225 223.691 206.283 224.491 206.401L224.371 208.477H221.337C221.185 208.477 221.065 208.523 220.977 208.613C220.889 208.703 220.846 208.821 220.846 208.966V209.875H223.939V211.829H220.846V212.956C220.846 213.1 220.889 213.218 220.977 213.308C221.065 213.399 221.185 213.444 221.337 213.444H224.371Z" fill="#005776"/>
<path d="M238.106 215.642V206.279C239.513 206.188 240.692 206.143 241.643 206.143C242.626 206.143 243.388 206.281 243.928 206.557C244.467 206.833 244.865 207.317 245.121 208.009C245.376 208.701 245.504 209.685 245.504 210.961C245.504 212.236 245.376 213.22 245.121 213.912C244.865 214.604 244.467 215.088 243.928 215.364C243.388 215.64 242.626 215.778 241.643 215.778C240.444 215.778 239.265 215.733 238.106 215.642ZM240.708 213.634L241.643 213.648C242.091 213.648 242.389 213.469 242.537 213.112C242.684 212.754 242.758 212.037 242.758 210.961C242.758 209.884 242.684 209.167 242.537 208.81C242.389 208.452 242.091 208.274 241.643 208.274H240.708V213.634Z" fill="#005776"/>
<path d="M258.528 213.444L258.648 215.52C257.849 215.638 256.414 215.697 254.343 215.697C253.776 215.697 253.31 215.5 252.946 215.107C252.583 214.713 252.401 214.2 252.401 213.566V208.355C252.401 207.722 252.583 207.208 252.946 206.815C253.31 206.421 253.776 206.225 254.343 206.225C256.414 206.225 257.849 206.283 258.648 206.401L258.528 208.477H255.495C255.343 208.477 255.223 208.523 255.135 208.613C255.047 208.703 255.003 208.821 255.003 208.966V209.875H258.097V211.829H255.003V212.956C255.003 213.1 255.047 213.218 255.135 213.308C255.223 213.399 255.343 213.444 255.495 213.444H258.528Z" fill="#005776"/>
<path d="M278.025 208.477H275.135C274.975 208.477 274.85 208.523 274.758 208.613C274.666 208.703 274.62 208.821 274.62 208.966V210.065H277.582V212.019H274.62V215.643H272.018V208.355C272.018 207.722 272.201 207.208 272.569 206.815C272.937 206.421 273.409 206.225 273.984 206.225C275.999 206.225 277.386 206.288 278.145 206.415L278.025 208.477Z" fill="#005776"/>
<path d="M292.112 215.642H289.39L288.85 212.861C288.802 212.607 288.728 212.438 288.628 212.352C288.528 212.266 288.367 212.223 288.143 212.223H287.339V215.642H284.785V206.279C285.601 206.188 286.772 206.143 288.299 206.143C289.546 206.143 290.439 206.351 290.979 206.767C291.518 207.183 291.788 207.925 291.788 208.993C291.788 210.35 291.228 211.092 290.109 211.218V211.3C290.861 211.408 291.312 211.897 291.464 212.766L292.112 215.642ZM287.339 210.146H288.239C288.614 210.146 288.864 210.083 288.988 209.956C289.112 209.83 289.174 209.572 289.174 209.183C289.174 208.794 289.112 208.536 288.988 208.409C288.864 208.283 288.614 208.219 288.239 208.219H287.339V210.146Z" fill="#005776"/>
<path d="M302.467 206.089C303.45 206.089 304.211 206.227 304.751 206.503C305.291 206.779 305.688 207.267 305.944 207.968C306.2 208.67 306.328 209.667 306.328 210.961C306.328 212.254 306.2 213.252 305.944 213.953C305.688 214.654 305.291 215.143 304.751 215.419C304.211 215.695 303.45 215.833 302.467 215.833C301.491 215.833 300.734 215.695 300.194 215.419C299.655 215.143 299.257 214.654 299.001 213.953C298.745 213.252 298.617 212.254 298.617 210.961C298.617 209.667 298.745 208.67 299.001 207.968C299.257 207.267 299.655 206.779 300.194 206.503C300.734 206.227 301.491 206.089 302.467 206.089ZM303.36 208.81C303.36 208.81 303.323 208.72 303.249 208.542C303.175 208.363 302.914 208.274 302.467 208.274C302.019 208.274 301.721 208.452 301.573 208.81C301.425 209.167 301.351 209.884 301.351 210.961C301.351 212.037 301.425 212.754 301.573 213.112C301.721 213.469 302.019 213.648 302.467 213.648C302.914 213.648 303.212 213.469 303.36 213.112C303.508 212.754 303.582 212.037 303.582 210.961C303.582 209.884 303.508 209.167 303.36 208.81Z" fill="#005776"/>
<path d="M320 208.477H317.686V215.643H315.083V208.477H312.769V206.279H320L320 208.477Z" fill="#005776"/>
<path d="M330.388 213.62H328.122L327.702 215.643H325.052L327.198 207.039C327.254 206.813 327.362 206.629 327.522 206.489C327.682 206.349 327.866 206.279 328.074 206.279H330.436C330.644 206.279 330.828 206.349 330.988 206.489C331.148 206.629 331.255 206.813 331.311 207.039L333.458 215.643H330.808L330.388 213.62ZM329.968 211.558L329.561 209.549C329.489 209.124 329.441 208.767 329.417 208.477H329.093C329.045 208.902 328.997 209.26 328.949 209.549L328.541 211.558H329.968Z" fill="#005776"/>
<path d="M343.153 212.481L341.51 211.666C340.838 211.332 340.363 210.949 340.083 210.52C339.803 210.09 339.663 209.531 339.663 208.844C339.663 207.794 339.915 207.073 340.419 206.679C340.922 206.286 341.806 206.089 343.069 206.089C344.276 206.089 345.279 206.247 346.078 206.564L345.923 208.45C344.963 208.432 343.992 208.423 343.009 208.423C342.705 208.423 342.501 208.446 342.397 208.491C342.293 208.536 342.241 208.631 342.241 208.776C342.241 208.902 342.291 209.009 342.391 209.095C342.491 209.181 342.681 209.287 342.961 209.414L344.46 210.119C345.139 210.454 345.619 210.839 345.899 211.273C346.178 211.707 346.318 212.273 346.318 212.969C346.318 214.028 346.074 214.77 345.587 215.195C345.099 215.62 344.216 215.833 342.937 215.833C341.858 215.833 340.79 215.679 339.735 215.371L339.891 213.308C341.474 213.354 342.477 213.376 342.901 213.376C343.229 213.376 343.446 213.354 343.554 213.308C343.662 213.263 343.716 213.177 343.716 213.051C343.716 212.924 343.678 212.82 343.602 212.738C343.526 212.657 343.376 212.571 343.153 212.481Z" fill="#005776"/>
<path d="M121.025 197.893H125.159V184.57H133.585L143.664 197.893H149.098L139.018 184.57H142.05C145.948 184.57 149.098 181.006 149.098 176.594V174.143C149.098 169.732 145.948 166.167 142.05 166.167H121.025V170.846H142.05C144.767 170.846 144.964 173.341 144.964 174.946C144.964 177.886 144.255 179.892 142.05 179.892H121.025V197.893Z" fill="#005776"/>
<path d="M160.201 189.249H172.761L176.029 197.893H180.518L168.548 166.167H164.06L170.989 184.57H161.973L163.745 179.892H159.256L152.445 197.893H156.933L160.201 189.249Z" fill="#005776"/>
<path d="M207.803 189.917C207.803 191.7 206.465 193.215 204.89 193.215H183.864V197.893H204.89C208.788 197.893 211.937 194.329 211.937 189.917V187.467C211.937 183.011 208.709 179.892 204.89 179.892H190.912C189.455 179.892 188.235 178.599 188.038 176.995H183.864C184.179 181.228 187.093 184.57 190.912 184.57H204.89C206.425 184.57 207.803 185.595 207.803 187.467V189.917ZM190.912 166.167C186.935 166.167 183.982 169.732 183.864 174.143H187.998C188.038 172.361 189.298 170.846 190.912 170.846H239.932V166.167H190.912ZM227.962 197.893V175.525H223.828V197.893H227.962Z" fill="#005776"/>
<path d="M243.869 197.893H248.003V184.57H256.429L266.509 197.893H271.942L261.863 184.57H264.894C268.792 184.57 271.942 181.006 271.942 176.594V174.143C271.942 169.732 268.792 166.167 264.894 166.167H243.869V170.846H264.894C267.611 170.846 267.808 173.341 267.808 174.946C267.808 177.886 267.099 179.892 264.894 179.892H243.869V197.893Z" fill="#005776"/>
<path d="M303.559 193.215H279.62V184.57H299.425V179.892H275.486V197.893H303.559V193.215ZM303.598 166.167H275.486V170.846H303.598V166.167Z" fill="#005776"/>
<path d="M346.318 174.143C346.318 169.732 343.168 166.167 339.27 166.167H316.985L320.489 170.846H339.27C341.987 170.846 342.184 173.341 342.184 174.946C342.184 177.886 341.475 179.892 339.27 179.892H327.34L340.885 197.893H346.318L336.239 184.57H339.27C343.168 184.57 346.318 181.006 346.318 176.594V174.143ZM311.67 197.893V173.386C317.851 181.54 323.994 189.739 330.175 197.893H335.609L311.67 166.167H307.536V197.893H311.67ZM315.725 189.249C316.867 189.249 317.773 188.224 317.773 186.932C317.773 185.595 316.788 184.57 315.686 184.57C314.583 184.57 313.638 185.64 313.638 186.887C313.638 188.135 314.544 189.249 315.725 189.249Z" fill="#005776"/>
<path fill-rule="evenodd" clip-rule="evenodd" d="M57.4206 212.625C57.4206 218.045 61.3153 222.455 66.1042 222.455C70.8953 222.455 74.792 218.045 74.792 212.625V208.038H91.5845C96.3735 208.038 100.27 203.628 100.27 198.209C100.27 192.787 96.3735 188.379 91.5845 188.379H74.792V179.205H78.8458C83.634 179.205 87.5314 174.797 87.5314 169.375C87.5314 163.953 83.634 159.545 78.8458 159.545C74.0548 159.545 70.1601 163.958 70.1601 169.375V173.962H53.3676C48.5765 173.962 44.6819 178.369 44.6819 183.791C44.6819 189.213 48.5765 193.621 53.3676 193.621H70.1601V202.796H66.1063C61.3153 202.798 57.4206 207.209 57.4206 212.625ZM78.8458 173.962H74.792V169.375C74.792 166.846 76.6104 164.788 78.8458 164.788C81.0804 164.788 82.8989 166.846 82.8989 169.375C82.8989 171.904 81.0804 173.962 78.8458 173.962ZM49.3145 183.791C49.3145 181.262 51.1329 179.205 53.3676 179.205H70.1601V188.379H53.3676C51.1329 188.379 49.3145 186.321 49.3145 183.791ZM91.5845 202.796H74.792V193.621H91.5845C93.8192 193.621 95.6376 195.679 95.6376 198.209C95.6376 200.738 93.8192 202.796 91.5845 202.796ZM62.0532 212.625C62.0532 210.099 63.8717 208.041 66.1063 208.038H70.1601V212.625C70.1601 215.154 68.3417 217.212 66.1042 217.212C63.8696 217.212 62.0532 215.154 62.0532 212.625Z" fill="#005776"/>
</svg>
